{"asset":{"version":"2.0","generator":"Blockbench 4.12.3 glTF exporter"},"scenes":[{"nodes":[5],"name":"blockbench_export"}],"scene":0,"nodes":[{"rotation":[0.0154254531387431,-0.015425453138743099,0.7069385089210124,0.7069385089210125],"translation":[-0.625,1.5625,0],"name":"pyramid","mesh":0},{"rotation":[0.0154254531387431,0.015425453138743099,-0.7069385089210124,0.7069385089210125],"translation":[0.625,1.5625,0],"name":"pyramid","mesh":1},{"rotation":[-0.488973571022674,0.5107884560572351,-0.48897357102267397,0.5107884560572352],"translation":[0,1.5875,-0.625],"name":"pyramid","mesh":2},{"rotation":[0.5107884560572351,0.48897357102267397,0.510788456057235,0.488973571022674],"translation":[0,1.5375,0.625],"name":"pyramid","mesh":3},{"name":"bone","children":[0,1,2,3]},{"children":[4]}],"bufferViews":[{"buffer":0,"byteOffset":0,"byteLength":192,"target":34962,"byteStride":12},{"buffer":0,"byteOffset":192,"byteLength":192,"target":34962,"byteStride":12},{"buffer":0,"byteOffset":384,"byteLength":128,"target":34962,"byteStride":8},{"buffer":0,"byteOffset":512,"byteLength":36,"target":34963},{"buffer":0,"byteOffset":548,"byteLength":192,"target":34962,"byteStride":12},{"buffer":0,"byteOffset":740,"byteLength":192,"target":34962,"byteStride":12},{"buffer":0,"byteOffset":932,"byteLength":128,"target":34962,"byteStride":8},{"buffer":0,"byteOffset":1060,"byteLength":36,"target":34963},{"buffer":0,"byteOffset":1096,"byteLength":192,"target":34962,"byteStride":12},{"buffer":0,"byteOffset":1288,"byteLength":192,"target":34962,"byteStride":12},{"buffer":0,"byteOffset":1480,"byteLength":128,"target":34962,"byteStride":8},{"buffer":0,"byteOffset":1608,"byteLength":36,"target":34963},{"buffer":0,"byteOffset":1644,"byteLength":192,"target":34962,"byteStride":12},{"buffer":0,"byteOffset":1836,"byteLength":192,"target":34962,"byteStride":12},{"buffer":0,"byteOffset":2028,"byteLength":128,"target":34962,"byteStride":8},{"buffer":0,"byteOffset":2156,"byteLength":36,"target":34963},{"buffer":0,"byteOffset":2192,"byteLength":60},{"buffer":0,"byteOffset":2252,"byteLength":240},{"buffer":0,"byteOffset":2492,"byteLength":4},{"buffer":0,"byteOffset":2496,"byteLength":16},{"buffer":0,"byteOffset":2512,"byteLength":4},{"buffer":0,"byteOffset":2516,"byteLength":12}],"buffers":[{"byteLength":2528,"uri":"data:application/octet-stream;base64,"}],"accessors":[{"bufferView":0,"componentType":5126,"count":16,"max":[0.125,0.875,0.25],"min":[-0.125,-0.375,-0.25],"type":"VEC3"},{"bufferView":1,"componentType":5126,"count":16,"max":[0.9950371980667114,0.1961161345243454,0.9805806875228882],"min":[-0.9950371980667114,-1,-0.9805806875228882],"type":"VEC3"},{"bufferView":2,"componentType":5126,"count":16,"max":[0.2654757797718048,0.8670909404754639],"min":[0.001202031271532178,0],"type":"VEC2"},{"bufferView":3,"componentType":5123,"count":18,"max":[15],"min":[0],"type":"SCALAR"},{"bufferView":4,"componentType":5126,"count":16,"max":[0.125,0.875,0.25],"min":[-0.125,-0.375,-0.25],"type":"VEC3"},{"bufferView":5,"componentType":5126,"count":16,"max":[0.9950371980667114,0.1961161345243454,0.9805806875228882],"min":[-0.9950371980667114,-1,-0.9805806875228882],"type":"VEC3"},{"bufferView":6,"componentType":5126,"count":16,"max":[0.6873508095741272,0.8670909404754639],"min":[0.2355770319700241,0],"type":"VEC2"},{"bufferView":7,"componentType":5123,"count":18,"max":[15],"min":[0],"type":"SCALAR"},{"bufferView":8,"componentType":5126,"count":16,"max":[0.125,0.875,0.25],"min":[-0.125,-0.375,-0.25],"type":"VEC3"},{"bufferView":9,"componentType":5126,"count":16,"max":[0.9950371980667114,0.1961161345243454,0.9805806875228882],"min":[-0.9950371980667114,-1,-0.9805806875228882],"type":"VEC3"},{"bufferView":10,"componentType":5126,"count":16,"max":[0.7186008095741272,0.9764659404754639],"min":[0,0],"type":"VEC2"},{"bufferView":11,"componentType":5123,"count":18,"max":[15],"min":[0],"type":"SCALAR"},{"bufferView":12,"componentType":5126,"count":16,"max":[0.125,0.875,0.25],"min":[-0.125,-0.375,-0.25],"type":"VEC3"},{"bufferView":13,"componentType":5126,"count":16,"max":[0.9950371980667114,0.1961161345243454,0.9805806875228882],"min":[-0.9950371980667114,-1,-0.9805806875228882],"type":"VEC3"},{"bufferView":14,"componentType":5126,"count":16,"max":[0.7498508095741272,0.9920909404754639],"min":[0.34375,0],"type":"VEC2"},{"bufferView":15,"componentType":5123,"count":18,"max":[15],"min":[0],"type":"SCALAR"},{"bufferView":16,"componentType":5126,"count":15,"max":[0.583329975605011],"min":[0],"type":"SCALAR"},{"bufferView":17,"componentType":5126,"count":15,"max":[0,1,0,1],"min":[0,0,0,6.123234262925839e-17],"type":"VEC4"},{"bufferView":18,"componentType":5126,"count":1,"max":[0],"min":[0],"type":"SCALAR"},{"bufferView":19,"componentType":5126,"count":1,"max":[-0.4809887707233429,0,0,0.8767267465591431],"min":[-0.4809887707233429,0,0,0.8767267465591431],"type":"VEC4"},{"bufferView":20,"componentType":5126,"count":1,"max":[0],"min":[0],"type":"SCALAR"},{"bufferView":21,"componentType":5126,"count":1,"max":[0,0,0],"min":[0,0,0],"type":"VEC3"}],"materials":[{"pbrMetallicRoughness":{"metallicFactor":0,"roughnessFactor":1,"baseColorTexture":{"index":0}},"alphaMode":"MASK","alphaCutoff":0.05,"doubleSided":true}],"textures":[{"sampler":0,"source":0,"name":"yellow.png"}],"samplers":[{"magFilter":9728,"minFilter":9728,"wrapS":33071,"wrapT":33071}],"images":[{"mimeType":"image/png","uri":"data:image/png;base64,"}],"meshes":[{"primitives":[{"mode":4,"attributes":{"POSITION":0,"NORMAL":1,"TEXCOORD_0":2},"indices":3,"material":0}]},{"primitives":[{"mode":4,"attributes":{"POSITION":4,"NORMAL":5,"TEXCOORD_0":6},"indices":7,"material":0}]},{"primitives":[{"mode":4,"attributes":{"POSITION":8,"NORMAL":9,"TEXCOORD_0":10},"indices":11,"material":0}]},{"primitives":[{"mode":4,"attributes":{"POSITION":12,"NORMAL":13,"TEXCOORD_0":14},"indices":15,"material":0}]}],"animations":[{"name":"spin","samplers":[{"input":16,"output":17,"interpolation":"LINEAR"}],"channels":[{"sampler":0,"target":{"node":4,"path":"rotation"}}]},{"name":"floating","samplers":[{"input":18,"output":19,"interpolation":"LINEAR"},{"input":20,"output":21,"interpolation":"LINEAR"}],"channels":[{"sampler":0,"target":{"node":4,"path":"rotation"}},{"sampler":1,"target":{"node":4,"path":"translation"}}]}]}